<svg xmlns="http://www.w3.org/2000/svg" viewBox="5330 6161 535 660">
<defs><style>.cls-318{fill: #c0833e;}
.cls-214{stroke-linecap: round;
        stroke-linejoin: round;fill: none;stroke: #c0833e;stroke-width: 10px;}</style></defs>
<path class="cls-318" d="M5379.16,6726.17c-6.6-44.48,47.94-144.04,88.15-159.29,45.24-16.87,90.42,21.62,136.2,16.23,69.78-11.43,123.11-60.36,176,24.95,51.01,78.94,68.89,158.64-45.18,152.81-74.24.24-189.13.07-266.27.09-44.84-2.01-76.76,3.67-88.68-33.7l-.23-1.09Z"/>
<path class="cls-318" d="M5761.58,6373.41c22.27-29.9,26.07-68.2,10.52-97.98-3.73-7.77-8.91-14.69-15.22-20.43-39.07-38.24-95.76-43.82-127.32-12.26l.25.03c-.08.07-.17.15-.25.23v-.25c-.45.45-.83.94-1.26,1.4-3.53,3.4-6.7,7.17-9.41,11.28-29.41,40.45-26.36,96.86,9.66,132.87v-.47c.17.15.34.3.5.45h-.5c33.13,33.15,88.17,31.73,123.05-3.15h-.07s.05-.04.07-.07v.07c.12-.12.21-.25.33-.37,3.62-3.42,6.88-7.2,9.66-11.35Z"/>
<rect class="cls-214" x="5335.79" y="6167.37" width="522.46" height="645.52"/>
</svg>
