<svg xmlns="http://www.w3.org/2000/svg" viewBox="2172.2 4795.9 379 588">
<defs><style>.cls-214{stroke-linecap: round;
        stroke-linejoin: round;fill: none;stroke: #c0833e;stroke-width: 10px;}
.cls-318{fill: #c0833e;}</style></defs>
<circle class="cls-214" cx="2460.27" cy="4894.92" r="23.02"/>
<path class="cls-318" d="M2369.09,5025.5h24.95v196.78h-24.95c-1.71-10.75,16.76-14.52,17.26-24.3.42-8.38-8.74-10.78-13.25-16.46-14.28-17.94,13.93-20.09,13.25-33.34-.47-9.19-19.05-14.31-17.22-26.15,1.24-8.01,16.82-12.27,17.23-21.14.56-11.99-17.9-15.66-17.37-26.18.49-9.6,17.54-12.8,17.42-23.66-.12-10.95-18.62-14.44-17.32-25.56Z"/>
<path class="cls-318" d="M2323.68,5025.5h24.95v196.78h-24.95c-1.71-10.75,16.76-14.52,17.26-24.3.42-8.38-8.74-10.78-13.25-16.46-14.28-17.94,13.93-20.09,13.25-33.34-.47-9.19-19.05-14.31-17.22-26.15,1.24-8.01,16.82-12.27,17.23-21.14.56-11.99-17.9-15.66-17.37-26.18.49-9.6,17.54-12.8,17.42-23.66-.12-10.95-18.62-14.44-17.32-25.56Z"/>
<path class="cls-318" d="M2278.27,5025.5h24.95v196.78h-24.95c-1.71-10.75,16.76-14.52,17.26-24.3.42-8.38-8.74-10.78-13.25-16.46-14.28-17.94,13.93-20.09,13.25-33.34-.47-9.19-19.05-14.31-17.22-26.15,1.24-8.01,16.82-12.27,17.23-21.14.56-11.99-17.9-15.66-17.37-26.18.49-9.6,17.54-12.8,17.42-23.66-.12-10.95-18.62-14.44-17.32-25.56Z"/>
<rect style="fill:none;stroke:#c0833e;stroke-width:10px;stroke-linecap:round;stroke-linejoin:round" x="2072.7" y="4905.35" width="577.94" height="369.02" transform="translate(-2728.1823 7451.5307) rotate(-90)"/>
<rect class="cls-318" x="2245.82" y="5025.5" width="10.53" height="196.78"/>
</svg>
