<svg xmlns="http://www.w3.org/2000/svg" viewBox="5295 8460 145 175">
<defs><style>.cls-318{fill: #c0833e;}</style></defs>
<path class="cls-318" d="M5428,8587.63v16.04h-126.56v-16.04c6.91-1.1,9.34,10.78,15.63,11.1,5.39.27,6.94-5.62,10.59-8.52,11.54-9.18,12.92,8.96,21.44,8.52,5.91-.3,9.21-12.25,16.82-11.08,5.15.8,7.89,10.82,13.59,11.08,7.71.36,10.07-11.51,16.84-11.17,6.17.31,8.23,11.28,15.22,11.2,7.04-.08,9.29-11.98,16.44-11.14Z"/>
<path class="cls-318" d="M5428,8558.43v16.04h-126.56v-16.04c6.91-1.1,9.34,10.78,15.63,11.1,5.39.27,6.94-5.62,10.59-8.52,11.54-9.18,12.92,8.96,21.44,8.52,5.91-.3,9.21-12.25,16.82-11.08,5.15.8,7.89,10.82,13.59,11.08,7.71.36,10.07-11.51,16.84-11.17,6.17.31,8.23,11.28,15.22,11.2,7.04-.08,9.29-11.98,16.44-11.14Z"/>
<path class="cls-318" d="M5428,8529.22v16.04h-126.56v-16.04c6.91-1.1,9.34,10.78,15.63,11.1,5.39.27,6.94-5.62,10.59-8.52,11.54-9.18,12.92,8.96,21.44,8.52,5.91-.3,9.21-12.25,16.82-11.08,5.15.8,7.89,10.82,13.59,11.08,7.71.36,10.07-11.51,16.84-11.17,6.17.31,8.23,11.28,15.22,11.2,7.04-.08,9.29-11.98,16.44-11.14Z"/>
</svg>
