<svg xmlns="http://www.w3.org/2000/svg" viewBox="1650 830 95 65">
<defs><style>.cls-102{fill: #fff;}</style></defs>
<path class="cls-102" d="M1706.83,846.84c0-7.1,4.03-10.88,9.74-10.88,3.68,0,7.35,2.21,8.81,5.89l.43-.11-.14-4.71c-1.86-1.25-5.53-1.75-8.17-1.75-8.74,0-14.45,5.96-14.45,13.17,0,7.99,5.25,12.42,13.77,12.42.25,0,.47-.01.7-.02,0-.25.02-.5.04-.75-6.78-.18-10.74-6.47-10.74-13.26Z"/>
<path class="cls-102" d="M1715.94,875.24v-.5c1.18-.39,1.43-1.46,1.43-4.03v-15.91c0-2.57-.25-3.64-1.43-4.03v-.5h8.81c5.85,0,7.99,1.82,7.99,4.71,0,2.43-1.53,4.64-6.03,5.42,5.89.18,8.89,2.89,8.92,6.46.07,4.18-3.18,8.39-11.95,8.39h-7.74ZM1728.5,855.79c0-3.14-2.25-4.96-5.89-4.96h-1.46v9.46h3.18c2.6,0,4.17-2,4.17-4.5ZM1731.39,868.18c0-4.28-2.39-7.32-7.71-7.32h-2.53v10.71c0,2.57.32,3.1,1.86,3.1h1c5.14,0,7.39-2.71,7.39-6.49Z"/>
</svg>
