<svg xmlns="http://www.w3.org/2000/svg" viewBox="1540 2300 145 195">
<defs><style>.cls-318{fill: #ffffff;}</style></defs>
<path class="cls-318" d="M1592.95,2358.67c0-26.2,14.88-40.15,35.93-40.15,13.56,0,27.12,8.16,32.51,21.72l1.58-.39-.53-17.38c-6.85-4.61-20.4-6.45-30.15-6.45-32.25,0-53.31,21.98-53.31,48.57,0,29.49,19.35,45.81,50.81,45.81.91,0,1.73-.05,2.6-.06.04-.92.09-1.84.16-2.76-25.01-.65-39.61-23.86-39.61-48.91Z"/>
<path class="cls-318" d="M1626.56,2463.44v-1.84c4.34-1.45,5.27-5.4,5.27-14.87v-58.71c0-9.48-.92-13.43-5.27-14.87v-1.84h32.51c21.59,0,29.49,6.71,29.49,17.38,0,8.95-5.66,17.11-22.25,20.01,21.72.66,32.78,10.66,32.91,23.83.26,15.4-11.72,30.93-44.1,30.93h-28.56ZM1672.9,2391.7c0-11.58-8.29-18.3-21.72-18.3h-5.4v34.88h11.72c9.61,0,15.4-7.37,15.4-16.59ZM1683.56,2437.38c0-15.8-8.82-26.98-28.43-26.98h-9.35v39.49c0,9.48,1.18,11.45,6.85,11.45h3.69c18.95,0,27.25-10,27.25-23.96Z"/>
</svg>
