<svg xmlns="http://www.w3.org/2000/svg" viewBox="2600.6 13702.95 43.1 43.1">
<defs><style></style></defs>
<path d="M2630.44,13719.08l-.02-4.84c-2.28-.55-4.58-.66-6.79.05-2.94.94-4.71,3.5-4.69,6.53l.03,4.67-5.02.13-.06,5.72,5.07.08v13.6c-10.73-1.65-18.15-11.39-17.27-21.97.88-10.65,9.84-18.88,20.54-18.84,10.7.04,19.65,8.31,20.43,19.08.76,10.58-6.77,20.22-17.51,21.78l-.02-13.64,4.44-.05.87-5.76-5.29-.12-.02-3.48c0-1.53,1.09-2.8,2.64-2.86l2.68-.09Z"/>
<path d="M2642.69,13621.22c0,11.34-9.2,20.54-20.54,20.54s-20.54-9.2-20.54-20.54,9.2-20.54,20.54-20.54,20.54,9.2,20.54,20.54ZM2616.25,13612.69c0-1.51-1.22-2.73-2.73-2.73s-2.73,1.22-2.73,2.73,1.22,2.73,2.73,2.73,2.73-1.22,2.73-2.73ZM2624.98,13621.43c.76-.44,2.09-.34,2.61.07.43.34,1.01,1.29,1.02,1.92l.06,9.06,4.81.02-.04-9.59c0-1.49-.56-3.45-1.64-4.49-2.43-2.34-6.43-1.81-8.39.67l-.3-1.74-4.42.09v15.02s4.52.03,4.52.03l.1-7.82c.02-1.18.56-2.59,1.66-3.23ZM2615.82,13617.37h-4.6v15.13h4.6v-15.13Z"/>
<path d="M2642.69,13570.71c0,11.34-9.2,20.54-20.54,20.54s-20.54-9.2-20.54-20.54,9.2-20.54,20.54-20.54,20.54,9.2,20.54,20.54ZM2631.47,13579.2c1.73-.11,2.8-1.48,2.95-2.91.4-3.83.4-7.47-.02-11.3-.16-1.46-1.39-2.68-2.97-2.78-6.17-.38-12.29-.36-18.47-.01-1.57.09-2.86,1.25-3.03,2.73-.47,3.87-.45,7.61-.02,11.48.17,1.56,1.48,2.74,3.15,2.83,6.11.33,12.14.36,18.41-.04Z"/>
<polygon points="2626.13 13570.7 2619.65 13574.53 2619.62 13566.89 2626.13 13570.7"/>
<path d="M2642.69,13672.67c0,11.34-9.2,20.54-20.54,20.54s-20.54-9.2-20.54-20.54,9.2-20.54,20.54-20.54,20.54,9.2,20.54,20.54ZM2628.13,13686.32c4.45,0,7.68-3.56,7.68-7.78v-11.89c-.02-4.16-3.34-7.6-7.54-7.62l-11.89-.04c-4.35-.01-7.88,3.3-7.88,7.7l.02,12.12c0,4.12,3.45,7.5,7.55,7.5h12.06Z"/>
<path d="M2628.4,13683.79l-12.31.03c-2.92,0-5.1-2.39-5.1-5.26v-11.89c.02-2.82,2.26-5.12,5.08-5.12l11.88-.02c2.93,0,5.32,2.14,5.33,5.14v11.9c.02,2.65-1.94,5.22-4.88,5.23ZM2631.22,13665.24c0-.91-.74-1.64-1.64-1.64s-1.64.74-1.64,1.64.74,1.64,1.64,1.64,1.64-.74,1.64-1.64ZM2629.2,13672.67c0-3.89-3.16-7.05-7.05-7.05s-7.05,3.16-7.05,7.05,3.16,7.05,7.05,7.05,7.05-3.16,7.05-7.05Z"/>
<circle cx="2622.15" cy="13672.67" r="4.55"/>
</svg>
