<svg xmlns="http://www.w3.org/2000/svg" viewBox="6031.5 14615.05 86.5 86.5">
<defs><style></style></defs>
<path d="M6092.01,14754.1l-.04-9.97c-4.7-1.14-9.45-1.36-14.01.1-6.06,1.94-9.71,7.21-9.67,13.47l.06,9.63-10.34.27-.13,11.79,10.44.16v28.04c-22.12-3.41-37.41-23.47-35.61-45.29,1.82-21.95,20.27-38.91,42.34-38.83,22.06.07,40.5,17.13,42.1,39.32,1.57,21.8-13.95,41.68-36.09,44.89l-.04-28.11,9.16-.11,1.8-11.86-10.91-.24-.04-7.17c-.02-3.16,2.24-5.78,5.45-5.89l5.52-.19Z"/>
<path d="M6117.25,14552.39c0,23.38-18.95,42.34-42.34,42.34s-42.34-18.95-42.34-42.34,18.95-42.34,42.34-42.34,42.34,18.95,42.34,42.34ZM6062.76,14534.8c0-3.11-2.52-5.63-5.63-5.63s-5.63,2.52-5.63,5.63,2.52,5.63,5.63,5.63,5.63-2.52,5.63-5.63ZM6080.75,14552.82c1.56-.91,4.32-.71,5.39.15.88.71,2.09,2.66,2.1,3.96l.13,18.67,9.92.04-.08-19.76c-.01-3.07-1.15-7.12-3.37-9.26-5.01-4.83-13.24-3.74-17.3,1.38l-.63-3.59-9.12.19.02,30.96,9.3.05.22-16.13c.03-2.44,1.15-5.34,3.42-6.66ZM6061.88,14544.45h-9.49v31.18h9.49v-31.18Z"/>
<path d="M6117.25,14448.28c0,23.38-18.96,42.34-42.34,42.34s-42.34-18.96-42.34-42.34,18.96-42.34,42.34-42.34,42.34,18.96,42.34,42.34ZM6094.12,14465.78c3.57-.22,5.77-3.05,6.07-6,.82-7.89.83-15.4-.04-23.29-.33-3.01-2.87-5.53-6.12-5.73-12.72-.78-25.33-.75-38.06-.03-3.24.18-5.89,2.58-6.26,5.62-.96,7.97-.93,15.69-.04,23.67.36,3.22,3.04,5.64,6.5,5.83,12.59.68,25.03.73,37.95-.08Z"/>
<polygon points="6083.13 14448.27 6069.78 14456.16 6069.7 14440.4 6083.13 14448.27"/>
<path d="M6117.25,14658.44c0,23.38-18.96,42.34-42.34,42.34s-42.34-18.96-42.34-42.34,18.96-42.34,42.34-42.34,42.34,18.96,42.34,42.34ZM6087.24,14686.58c9.17,0,15.83-7.34,15.82-16.03l-.03-24.5c0-8.57-6.85-15.67-15.52-15.7l-24.51-.08c-8.96-.03-16.25,6.8-16.23,15.87l.04,24.97c.01,8.5,7.11,15.45,15.57,15.46h24.86Z"/>
<path d="M6087.8,14681.35l-25.38.06c-6.02.01-10.52-4.93-10.51-10.84l.03-24.51c0-5.82,4.63-10.54,10.45-10.56l24.49-.05c6.04-.01,10.97,4.4,10.98,10.6l.03,24.53c0,5.46-4.02,10.76-10.1,10.77ZM6093.62,14643.13c0-1.87-1.52-3.39-3.39-3.39s-3.39,1.52-3.39,3.39,1.52,3.39,3.39,3.39,3.39-1.52,3.39-3.39ZM6089.45,14658.44c0-8.02-6.5-14.53-14.53-14.53s-14.53,6.5-14.53,14.53,6.5,14.53,14.53,14.53,14.53-6.5,14.53-14.53Z"/>
<circle cx="6074.92" cy="14658.45" r="9.37"/>
</svg>
